PathFileType	3	(X/Y/Z)	RCH0000002 BBF 10.c3d
DataRate	CameraRate	NumFrames	NumMarkers	Units	OrigDataRate	OrigDataStartFrame	OrigNumFrames
100.0	100.0	12	23	mm	100.0	456	464
Frame#	Time	MAN			RASI			LKNE			LANK			LHEE			LTOE			RPAT			RKNE			RANK			RMED			RHEE			RTOE			LPAT			RPSI			LMED			LASI			T2			LPSI			T10			RTHI			LTHI			RTIB			LTIB			
		X1	Y1	Z1	X2	Y2	Z2	X3	Y3	Z3	X4	Y4	Z4	X5	Y5	Z5	X6	Y6	Z6	X7	Y7	Z7	X8	Y8	Z8	X9	Y9	Z9	X10	Y10	Z10	X11	Y11	Z11	X12	Y12	Z12	X13	Y13	Z13	X14	Y14	Z14	X15	Y15	Z15	X16	Y16	Z16	X17	Y17	Z17	X18	Y18	Z18	X19	Y19	Z19	X20	Y20	Z20	X21	Y21	Z21	X22	Y22	Z22	X23	Y23	Z23	

456	4.550	1437.35594	-44.93911	926.18489	1421.33367	-132.35317	625.77244	1238.60298	49.60504	332.59141	1092.23969	42.61430	96.71786	1071.09609	3.14422	141.92771	1137.86884	9.34434	74.16401	1530.00453	-48.39246	399.76287	1509.49914	-109.02319	351.85499	1474.84851	-154.54288	89.35650	1447.91126	-89.27775	92.78842	1422.12747	-133.23549	116.84537	1509.80122	-110.26859	79.15330	1300.25968	-1.17534	351.12092	1297.88200	-119.08400	674.82050	1106.52073	-24.82082	114.07118	1368.96132	36.13403	635.39779	1310.18371	-66.06724	963.67644	1279.68158	-52.31052	681.28324	1307.76861	-77.54949	776.82370	1488.18840	-186.51599	456.15429	1267.50004	117.63042	455.32538	1511.29511	-191.69381	251.16589	1167.47512	110.92832	233.81466	
457	4.560	1449.16191	-46.09833	925.41801	1434.11337	-132.44978	625.09661	1254.13857	48.43879	328.91462	1099.49030	42.85014	99.59564	1079.83515	3.78466	145.65784	1143.10057	8.87564	74.81597	1538.65935	-46.68946	395.68294	1518.68948	-108.11936	348.34399	1482.06751	-155.33797	86.39325	1454.07144	-90.37760	90.30778	1429.24706	-134.89472	114.24129	1516.32918	-110.42634	76.85848	1315.96418	-2.22024	347.08804	1310.56277	-118.59541	673.82670	1113.14276	-24.70646	116.15586	1381.75812	36.00434	632.60149	1321.44985	-67.65274	961.53443	1292.28412	-51.73305	679.04514	1320.58339	-77.00510	774.68117	1499.87681	-185.45010	453.20889	1282.00457	116.59438	451.78908	1521.09049	-191.00438	247.85774	1181.14352	110.30620	232.81604	
458	4.570	1460.82327	-47.11852	925.05447	1446.78513	-132.71338	624.95926	1270.72270	47.05428	325.11293	1108.14250	43.06644	102.63288	1089.94323	4.43752	149.48560	1149.53331	8.31840	75.62198	1546.79466	-45.76894	391.92983	1527.05635	-107.84269	345.19896	1487.06157	-156.40713	84.03792	1458.23244	-91.70463	88.53698	1434.38741	-136.68198	112.46862	1520.69496	-110.96172	75.00786	1332.61258	-3.56918	343.10794	1323.21186	-118.00222	673.47036	1120.97722	-24.61795	118.36564	1394.60356	35.70819	629.85800	1332.53655	-69.02889	959.64690	1304.87554	-51.03744	677.18577	1333.45236	-76.16844	772.82395	1510.93258	-184.97627	450.64083	1297.13719	115.29298	448.22717	1529.28447	-190.83687	244.89269	1196.19438	109.53587	231.72775	
459	4.580	1472.30693	-47.95936	925.13822	1459.28308	-133.17597	625.40864	1288.19745	45.48484	321.37972	1118.25430	43.25683	105.79633	1101.43906	5.06287	153.34166	1157.32202	7.71697	76.61201	1554.36349	-45.75415	388.65092	1534.54760	-108.28543	342.54829	1490.24424	-157.68679	82.26569	1460.78476	-93.20660	87.44798	1437.89792	-138.55856	111.44799	1523.31568	-111.80340	73.60185	1350.04689	-5.19754	339.37902	1335.77085	-117.33980	673.80021	1130.13833	-24.55748	120.67590	1407.45539	35.21448	627.28605	1343.42542	-70.12995	958.09275	1317.41025	-50.26376	675.80231	1346.30530	-75.06512	771.34501	1521.25575	-185.18572	448.55276	1312.79271	113.74976	444.81967	1535.99174	-191.25398	242.30358	1212.47447	108.62933	230.67794	
460	4.590	1483.58235	-48.58599	925.70787	1471.55424	-133.86319	626.47112	1306.38789	43.77023	317.92828	1129.83887	43.40479	109.05171	1114.30239	5.59951	157.15365	1166.60354	7.11928	77.81392	1561.30612	-46.70407	385.93422	1541.11389	-109.50176	340.47395	1492.05199	-159.11264	81.01387	1462.12975	-94.83235	86.97149	1440.14404	-140.49411	111.05711	1524.62508	-112.87210	72.60926	1368.10089	-7.06458	336.11489	1348.19284	-116.65045	674.84060	1140.72130	-24.53946	123.05398	1420.27943	34.50054	625.01209	1354.10221	-70.90207	956.94680	1329.85465	-49.45869	674.98272	1359.07486	-73.73837	770.33046	1530.77283	-186.12546	447.00934	1328.85494	111.99978	441.76167	1541.35480	-192.28549	240.09525	1229.78409	107.59908	229.82387	
461	4.600	1494.62317	-48.97170	926.79312	1483.56132	-134.79128	628.14837	1325.11482	41.95529	314.97412	1142.86558	43.48380	112.36427	1128.47768	5.96918	160.84977	1177.48715	6.57156	79.24987	1567.55925	-48.60686	383.81132	1546.71867	-111.50007	339.01250	1492.90016	-160.62271	80.19701	1462.64520	-96.53199	87.01038	1441.47245	-142.46172	111.15112	1525.03431	-114.08767	71.97705	1386.61319	-9.11362	333.52634	1360.44432	-115.98059	676.58937	1152.79610	-24.59013	125.45998	1433.04996	33.55495	623.16147	1364.55771	-71.30770	956.27478	1342.18758	-48.67226	674.79900	1371.70030	-72.24704	769.85295	1539.44393	-187.79290	446.03578	1345.20383	110.08811	439.24761	1545.52730	-193.92292	238.25279	1247.89389	106.45873	229.33675	
462	4.610	1505.40904	-49.10021	928.41115	1495.28365	-135.96503	630.41664	1344.20761	40.08823	312.71615	1157.26590	43.45848	115.69898	1143.88172	6.08374	164.36254	1190.04630	6.11200	80.93308	1573.06548	-51.38274	382.26796	1551.34661	-114.24018	338.16138	1493.14908	-162.15803	79.72361	1462.65955	-98.25522	87.45516	1442.18483	-144.43110	111.58384	1524.90166	-115.37393	71.64143	1405.43868	-11.27393	331.80271	1372.50534	-115.37676	679.01737	1166.40243	-24.74543	127.84882	1445.74905	32.37919	621.84862	1374.78873	-71.32881	956.12842	1354.39919	-47.95367	675.30086	1384.13023	-70.66185	769.96579	1547.26529	-190.13685	445.62037	1361.72364	108.06777	437.45414	1548.65908	-196.11894	236.75102	1266.56503	105.22294	229.38206	
463	4.620	1515.92732	-48.96710	930.56302	1506.71623	-137.37669	633.22802	1363.51602	38.21860	311.31900	1172.94344	43.28694	119.02026	1160.41401	5.85477	167.63251	1204.31249	5.76469	82.86522	1577.78243	-54.89567	381.25874	1555.00956	-117.63639	337.88827	1493.08395	-163.66228	79.51095	1462.43715	-99.94986	88.19898	1442.52293	-146.36290	112.22611	1524.51432	-116.66150	71.53811	1424.45715	-13.46456	331.09498	1384.36786	-114.88119	682.06977	1181.54648	-25.04727	130.17365	1458.36518	30.98827	621.16736	1384.79883	-70.96872	956.54128	1366.48842	-47.34652	676.51045	1396.32436	-69.06039	770.69817	1554.26735	-193.06440	445.72039	1378.31141	105.99715	436.52355	1550.88563	-198.79184	235.56324	1285.57039	103.90681	230.09834	
464	4.630	1526.17445	-48.58047	933.23076	1517.86710	-139.00615	636.51336	1382.91961	36.39506	310.89864	1189.78621	42.92466	122.29176	1177.96800	5.20472	170.61165	1220.27227	5.53499	85.03508	1581.69083	-58.97160	380.72225	1557.74937	-121.56612	338.14121	1492.90932	-165.08180	79.49541	1462.17436	-101.56183	89.14935	1442.66505	-148.20651	112.97847	1524.08257	-117.88973	71.61009	1443.57826	-15.59972	331.50292	1396.03282	-114.52730	685.66854	1198.19987	-25.53828	132.39020	1470.89147	29.41005	621.18233	1394.59887	-70.25214	957.52549	1378.45973	-46.88433	678.41858	1408.25397	-67.52105	772.05209	1560.50913	-196.45239	446.27000	1394.88435	103.93719	436.55016	1552.32339	-201.83432	234.66757	1304.71453	102.52490	231.57787	
465	4.640	1536.15686	-47.96061	936.37534	1528.75351	-140.82219	640.18647	1402.33403	34.66301	311.51329	1207.67919	42.32994	125.47611	1196.44113	4.07836	173.26596	1237.86790	5.40778	87.41855	1584.80087	-63.42007	380.59321	1559.63772	-125.88302	338.85748	1492.75567	-166.36724	79.63677	1462.00448	-103.03767	90.23547	1442.73210	-149.90275	113.77685	1523.74460	-119.00845	71.81210	1462.74266	-17.59540	333.06792	1407.50642	-114.33583	689.71617	1216.30086	-26.25556	134.46151	1483.32372	27.68332	621.92243	1404.20724	-69.22356	959.06993	1390.31952	-46.58681	680.98292	1419.90133	-66.11669	774.00109	1566.07025	-200.16135	447.18923	1411.38513	101.94832	437.57133	1553.07090	-205.12538	234.04984	1323.84988	101.09048	233.85293	
466	4.650	1545.89133	-47.13881	939.93597	1539.39739	-142.78481	644.14903	1421.71334	33.06240	313.16019	1226.51531	41.47025	128.53490	1215.74232	2.45284	175.57698	1257.00202	5.34909	89.97970	1587.15637	-68.05595	380.80987	1560.77314	-130.43239	339.97019	1492.69410	-167.47714	79.91679	1462.00842	-104.32942	91.41052	1442.79965	-151.39102	114.59142	1523.57857	-119.98005	72.11181	1481.91960	-19.37647	335.77186	1418.79622	-114.31217	694.09991	1235.75805	-27.22426	136.36181	1495.65873	25.85490	623.37708	1413.64944	-67.94394	961.13973	1402.07284	-46.45745	684.12835	1431.25830	-64.90872	776.49101	1571.04209	-204.04993	448.39262	1427.78408	100.08739	439.56419	1553.21452	-208.54323	233.70279	1342.88755	99.61574	236.88976	
467	4.660	1555.40457	-46.15532	943.83086	1549.82077	-144.84831	648.29572	1441.04843	31.62572	315.77833	1246.20358	40.32878	131.42884	1235.79600	0.34469	177.54142	1277.54602	5.31129	92.67254	1588.83597	-72.71785	381.31663	1561.27603	-135.06665	341.41234	1492.75459	-168.38244	80.33335	1462.22795	-105.40081	92.64964	1442.91237	-152.61920	115.42027	1523.61816	-120.78167	72.48823	1501.10178	-20.88327	339.54160	1429.90765	-114.44531	698.69647	1256.45635	-28.45198	138.07872	1507.89314	23.97590	625.49558	1422.95734	-66.48612	963.67742	1413.72081	-46.48287	687.74956	1442.32440	-63.94212	779.44256	1575.51928	-207.98778	449.79683	1444.07762	98.40447	442.44825	1552.83671	-211.97732	233.62227	1361.80163	98.11306	240.59151	
